<svg width="48" height="48" viewBox="0 0 48 48" fill="none" xmlns="http://www.w3.org/2000/svg">
<path d="M33.0459 24.7959L26.2959 31.5459C26.0846 31.7572 25.7979 31.8759 25.4991 31.8759C25.2002 31.8759 24.9135 31.7572 24.7022 31.5459C24.4908 31.3345 24.3721 31.0479 24.3721 30.749C24.3721 30.4501 24.4908 30.1635 24.7022 29.9521L29.5312 25.1249H15.75C15.4516 25.1249 15.1655 25.0064 14.9545 24.7954C14.7435 24.5844 14.625 24.2983 14.625 23.9999C14.625 23.7016 14.7435 23.4154 14.9545 23.2044C15.1655 22.9934 15.4516 22.8749 15.75 22.8749H29.5312L24.7041 18.0449C24.4927 17.8336 24.374 17.5469 24.374 17.248C24.374 16.9492 24.4927 16.6625 24.7041 16.4512C24.9154 16.2398 25.2021 16.1211 25.5009 16.1211C25.7998 16.1211 26.0865 16.2398 26.2978 16.4512L33.0478 23.2012C33.1527 23.3058 33.2359 23.4302 33.2926 23.5671C33.3493 23.704 33.3784 23.8507 33.3782 23.9989C33.3781 24.1471 33.3486 24.2938 33.2916 24.4305C33.2346 24.5673 33.1511 24.6914 33.0459 24.7959Z" fill="white"/>
</svg>
