<svg id="crown" viewBox="0 0 32 32" fill="none" xmlns="http://www.w3.org/2000/svg">
<path d="M30.481 9.5242C30.2554 9.32751 29.9764 9.2023 29.6795 9.16446C29.3826 9.12663 29.0812 9.17787 28.8135 9.3117L22.5372 12.4367L17.2972 3.73295C17.1625 3.50961 16.9724 3.32486 16.7453 3.19661C16.5182 3.06837 16.2618 3.00098 16.001 3.00098C15.7402 3.00098 15.4838 3.06837 15.2567 3.19661C15.0295 3.32486 14.8394 3.50961 14.7047 3.73295L9.46472 12.4404L3.19097 9.31545C2.9239 9.18281 2.6236 9.13201 2.32776 9.16942C2.03192 9.20683 1.75371 9.33078 1.52806 9.52572C1.30241 9.72066 1.13936 9.97791 1.05938 10.2652C0.979392 10.5524 0.986035 10.8569 1.07847 11.1404L5.70347 25.3104C5.74997 25.4528 5.82785 25.5829 5.93136 25.6911C6.03487 25.7994 6.16137 25.8829 6.30151 25.9357C6.44166 25.9885 6.59187 26.0092 6.74106 25.9961C6.89025 25.9831 7.0346 25.9367 7.16347 25.8605C7.19472 25.8417 10.391 24.0005 16.001 24.0005C21.611 24.0005 24.8072 25.8417 24.836 25.8592C24.9649 25.9362 25.1095 25.9832 25.2591 25.9967C25.4086 26.0102 25.5593 25.9898 25.6999 25.9371C25.8405 25.8844 25.9675 25.8007 26.0713 25.6922C26.1751 25.5837 26.2532 25.4532 26.2997 25.3104L30.9247 11.1442C31.0198 10.8606 31.0284 10.5551 30.9494 10.2667C30.8704 9.97819 30.7073 9.71974 30.481 9.5242ZM24.751 23.6042C23.251 22.968 20.261 22.0005 16.001 22.0005C11.741 22.0005 8.75097 22.968 7.25097 23.6042L3.33972 11.6255L8.97347 14.4342C9.31448 14.6024 9.7061 14.6367 10.0712 14.5305C10.4363 14.4243 10.7484 14.1853 10.946 13.8604L16.001 5.45795L21.056 13.858C21.2537 14.1823 21.5656 14.4209 21.9303 14.5271C22.2951 14.6332 22.6863 14.5992 23.0272 14.4317L28.6622 11.6255L24.751 23.6042ZM21.9847 19.6042C21.9439 19.8355 21.823 20.0451 21.6431 20.1962C21.4632 20.3473 21.2359 20.4302 21.001 20.4305C20.9423 20.4304 20.8838 20.4254 20.826 20.4155C17.6318 19.8671 14.3676 19.8671 11.1735 20.4155C10.9122 20.4615 10.6434 20.4019 10.4261 20.2498C10.2088 20.0977 10.0608 19.8654 10.0147 19.6042C9.96864 19.343 10.0282 19.0741 10.1804 18.8568C10.3325 18.6395 10.5647 18.4915 10.826 18.4454C14.2501 17.8571 17.7494 17.8571 21.1735 18.4454C21.4342 18.4912 21.6661 18.6385 21.8184 18.855C21.9707 19.0715 22.031 19.3396 21.986 19.6005L21.9847 19.6042Z" fill="#65C472"/>
</svg>
